<svg xmlns="http://www.w3.org/2000/svg" width="20.156" height="20" viewBox="0 0 20.156 20">
  <defs>
    <style>
      .cls-1 {
        fill: gray;
        fill-rule: evenodd;
      }
    </style>
  </defs>
  <path id="cart.svg" class="cls-1" d="M915,377a2,2,0,1,0,2,2A2,2,0,0,0,915,377Zm-11.992,2A2,2,0,1,0,905,377,2,2,0,0,0,903.008,379Zm13.3-14H904.16l2.24,4.73,0.129,0.27h7.021Zm-13.1-2H919l0.16,0.96-3.862,7.01A1.988,1.988,0,0,1,913.55,372H906.1l-0.9,1.63-0.03.12a0.256,0.256,0,0,0,.249.25H917v2H905a2.005,2.005,0,0,1-2-2,1.933,1.933,0,0,1,.249-0.96l1.352-2.45L901,363h-2v-2h3.269Z" transform="translate(-899 -361)"/>
</svg>
