<svg xmlns="http://www.w3.org/2000/svg" width="16" height="16" viewBox="0 0 16 16">
  <defs>
    <style>
      .cls-1 {
        fill: gray;
        fill-rule: evenodd;
      }
    </style>
  </defs>
  <path id="user.svg" class="cls-1" d="M1165,372c-2.67,0-8,1.34-8,4v3h16v-3C1173,373.34,1167.67,372,1165,372Zm0-9a4,4,0,1,0,4,4A4,4,0,0,0,1165,363Zm0,10.9c2.97,0,6.1,1.46,6.1,2.1v1.1h-12.2V376C1158.9,375.36,1162.03,373.9,1165,373.9Zm0-9a2.1,2.1,0,1,1-2.1,2.1A2.1,2.1,0,0,1,1165,364.9Z" transform="translate(-1157 -363)"/>
</svg>
