<svg xmlns="http://www.w3.org/2000/svg" width="22" height="12" viewBox="0 0 22 12">
  <defs>
    <style>
      .cls-1 {
        fill: #b5b5b5;
        fill-rule: evenodd;
      }
    </style>
  </defs>
  <path id="game.svg" class="cls-1" d="M200.5,1755a1.5,1.5,0,1,1,1.5-1.5A1.5,1.5,0,0,1,200.5,1755Zm-4,3a1.5,1.5,0,1,1,1.5-1.5A1.5,1.5,0,0,1,196.5,1758Zm-4.5-2h-3v3h-2v-3h-3v-2h3v-3h2v3h3v2Zm10-7H184a2.006,2.006,0,0,0-2,2v8a2.006,2.006,0,0,0,2,2h18a2.005,2.005,0,0,0,2-2v-8A2.005,2.005,0,0,0,202,1749Z" transform="translate(-182 -1749)"/>
</svg>
