<svg xmlns="http://www.w3.org/2000/svg" width="20" height="14" viewBox="0 0 20 14">
  <defs>
    <style>
      .cls-1 {
        fill: #ccc;
        fill-rule: evenodd;
      }
    </style>
  </defs>
  <path id="keyboard.svg" class="cls-1" d="M200,1453h-2v-2h2v2Zm0,3h-2v-2h2v2Zm-3-3h-2v-2h2v2Zm0,3h-2v-2h2v2Zm0,4h-8v-2h8v2Zm-9-7h-2v-2h2v2Zm0,3h-2v-2h2v2Zm1-2h2v2h-2v-2Zm0-3h2v2h-2v-2Zm3,3h2v2h-2v-2Zm0-3h2v2h-2v-2Zm9-3H185a2,2,0,0,0-1.989,2L183,1460a2,2,0,0,0,2,2h16a2.005,2.005,0,0,0,2-2v-10A2.005,2.005,0,0,0,201,1448Z" transform="translate(-183 -1448)"/>
</svg>
