<svg xmlns="http://www.w3.org/2000/svg" width="20" height="20" viewBox="0 0 20 20">
  <defs>
    <style>
      .cls-1 {
        fill: #e6e4e4;
        fill-rule: evenodd;
      }
    </style>
  </defs>
  <path id="cart.svg" class="cls-1" d="M891,1717a2,2,0,1,0,2,2,2,2,0,0,0-2-2h0Zm-6-16v2h2l3.6,7.59-1.35,2.45a1.954,1.954,0,0,0-.249.96,2.006,2.006,0,0,0,2,2h12v-2H891.421a0.249,0.249,0,0,1-.252-0.25l0.032-.12,0.9-1.63h7.449a1.992,1.992,0,0,0,1.751-1.03l3.578-6.49A0.977,0.977,0,0,0,905,1704a1,1,0,0,0-1-1H889.209l-0.939-2H885Zm16,16a2,2,0,1,0,2,2,2,2,0,0,0-2-2h0Z" transform="translate(-885 -1701)"/>
</svg>
