<svg xmlns="http://www.w3.org/2000/svg" width="20" height="18.34" viewBox="0 0 20 18.34">
  <defs>
    <style>
      .cls-1 {
        fill: #d8d6d6;
        fill-rule: evenodd;
      }
    </style>
  </defs>
  <path id="heart.svg" class="cls-1" d="M679.5,1806a5.989,5.989,0,0,0-4.5,2.09,5.987,5.987,0,0,0-4.5-2.09,5.446,5.446,0,0,0-5.5,5.5c0,3.78,3.4,6.86,8.549,11.54l1.45,1.31,1.45-1.32c5.149-4.67,8.55-7.75,8.55-11.53a5.446,5.446,0,0,0-5.5-5.5h0Zm-4.4,15.55-0.1.1-0.1-.1c-4.759-4.31-7.9-7.16-7.9-10.05a3.417,3.417,0,0,1,3.5-3.5,3.912,3.912,0,0,1,3.572,2.36h1.87a3.88,3.88,0,0,1,3.56-2.36,3.417,3.417,0,0,1,3.5,3.5c0,2.89-3.142,5.74-7.9,10.05h0Z" transform="translate(-665 -1806)"/>
</svg>
